# xmcd CD database file
#
# Track frame offsets:
#	150
#	21420
#	40505
#	55583
#
# Disc length: 960 seconds
#
# Revision: 0
# Processed by: cddbd v1.5.1PL2 Copyright (c) Steve Scherf et al.
# Submitted via: CDex 1.51
#
DISCID=2603be04
DTITLE=東京エスムジカ - 風の行方
DYEAR=2005
DGENRE=Japanese Pop
TTITLE0=風の行方
TTITLE1=day by day -feat. mahala rai banda-
TTITLE2=艶姿
TTITLE3=艶姿 -another story-
EXTD=YEAR: 2005
EXTT0=
EXTT1=
EXTT2=
EXTT3=
PLAYORDER=
